# xmcd
#
# Track frame offsets: 
#        150
#        19472
#        37970
#        57280
#        79025
#        93260
#        110815
#        128372
#        149110
#        164755
#        183290
#        200040
#
# Disc length: 2922 seconds
#
# Revision: 7
# Processed by: cddbd v1.5.2PL0 Copyright (c) Steve Scherf et al.
# Submitted via: ExactAudioCopy v0.99pb4
#
DISCID=ab0b680c
DTITLE=Radiohead - The Bends
DYEAR=1995
DGENRE=Rock
TTITLE0=Planet Telex
TTITLE1=The Bends
TTITLE2=High and Dry
TTITLE3=Fake Plastic Trees
TTITLE4=Bones
TTITLE5=(Nice Dream)
TTITLE6=Just
TTITLE7=My Iron Lung
TTITLE8=Bullet Proof.. I Wish I Was
TTITLE9=Black Star
TTITLE10=Sulk
TTITLE11=Street Spirit (Fade Out)
EXTD=
EXTT0=
EXTT1=
EXTT2=
EXTT3=
EXTT4=
EXTT5=
EXTT6=
EXTT7=
EXTT8=
EXTT9=
EXTT10=
EXTT11=
PLAYORDER=
